<svg width="40" height="40" viewBox="0 0 40 40" fill="none" xmlns="http://www.w3.org/2000/svg">
<path fill-rule="evenodd" clip-rule="evenodd" d="M20 0C8.95455 0 0 8.95455 0 20C0 31.0455 8.95455 40 20 40C31.0455 40 40 31.0455 40 20C40 8.95455 31.0455 0 20 0ZM14.0127 24.0127C13.6698 24.3439 13.2105 24.5272 12.7338 24.523C12.2571 24.5189 11.8011 24.3277 11.464 23.9906C11.1269 23.6535 10.9356 23.1975 10.9315 22.7207C10.9274 22.244 11.1106 21.7847 11.4418 21.4418L18.7145 14.1691C19.0555 13.8282 19.5179 13.6368 20 13.6368C20.4821 13.6368 20.9445 13.8282 21.2855 14.1691L28.5582 21.4418C28.8894 21.7847 29.0726 22.244 29.0685 22.7207C29.0644 23.1975 28.8731 23.6535 28.536 23.9906C28.1989 24.3277 27.7429 24.5189 27.2662 24.523C26.7895 24.5272 26.3302 24.3439 25.9873 24.0127L20 18.0255L14.0127 24.0127Z" fill="#0062FF"/>
</svg>
