<svg width="512" height="512" viewBox="0 0 512 512" fill="none" xmlns="http://www.w3.org/2000/svg">
<rect width="512" height="512" rx="256" fill="#0062FF"/>
<path fill-rule="evenodd" clip-rule="evenodd" d="M396.551 74.1082C369.32 73.9164 327.255 83.3486 280.771 109.971C256.905 123.64 231.83 141.863 206.947 165.702C197.212 165.488 184.685 167.208 171.509 170.008C156.759 173.142 140.661 177.746 125.776 183.001C110.937 188.241 97.0495 194.216 86.8294 200.162C81.7507 203.117 77.2765 206.236 74.0281 209.456C71.0436 212.414 67.7503 216.781 68.1322 222.128C68.6546 229.442 74.0308 235.884 79.3752 240.838C85.0666 246.113 92.3894 251.187 99.5471 255.646C106.749 260.133 114.042 264.155 119.767 267.275C119.966 267.383 120.162 267.49 120.356 267.596L120.754 267.812L121.69 268.321L121.691 268.322L121.718 268.336C122.873 268.964 123.938 269.544 124.908 270.076C123.234 272.713 121.397 275.571 119.475 278.562L119.474 278.563L119.474 278.564L119.473 278.565L119.473 278.565L119.472 278.566C114.172 286.813 108.227 296.064 103.285 304.43C99.125 311.474 95.3586 318.397 92.883 324.309C91.649 327.256 90.6382 330.178 90.1033 332.879C89.6059 335.391 89.3107 338.697 90.589 341.78C91.4683 343.901 93.2552 346.482 95.1016 348.927C97.0451 351.501 99.5333 354.536 102.369 357.826L102.209 357.856C88.9534 360.429 75.3591 368.586 62.9532 378.91C56.1463 384.575 49.4991 391.061 43.2531 397.97C43.4098 398.051 43.5629 398.135 43.7122 398.222C44.7146 399.559 48.0902 403.162 52.5509 407.778C58.5558 401.069 64.9809 394.752 71.572 389.267C83.2255 379.569 94.7399 373.031 104.777 371.083C108.013 370.455 111.087 370.296 113.997 370.682C117.087 373.961 120.319 377.299 123.58 380.568C127.693 384.69 131.886 388.738 135.926 392.443C139.295 403.882 136.413 416.21 130.044 428.51C123.709 440.746 114.287 452.088 105.758 460.772C109.065 463.822 112.488 466.869 115.87 469.703C124.938 460.403 135.027 448.19 142.009 434.705C146.791 425.47 150.276 415.253 150.765 404.839C152.286 405.933 153.745 406.901 155.112 407.705C156.51 408.526 157.987 409.28 159.46 409.8C160.797 410.271 162.87 410.824 165.148 410.424C168.631 409.813 173.349 407.754 178.209 405.31C183.324 402.738 189.399 399.316 195.897 395.409C207.577 388.384 220.856 379.649 232.775 371.124C240.08 377.033 248.259 386.677 256.666 396.647C261.405 402.266 266.169 407.912 270.581 412.471C274.789 416.82 279.497 421.08 284.201 422.961C287.545 424.299 290.667 423.385 292.806 422.071C294.781 420.858 296.344 419.097 297.556 417.451C300.024 414.098 302.389 409.335 304.622 403.945C309.148 393.023 313.82 377.818 318.009 361.548C326.005 330.485 332.622 294.012 332.834 274.277C350.716 250.46 366.608 223.84 378.76 194.517C392.949 160.283 402.029 122.392 403.238 81.0417L403.439 74.1567L396.551 74.1082ZM302.203 224.232C302.203 246.348 284.275 264.277 262.158 264.277C240.042 264.277 222.113 246.348 222.113 224.232C222.113 202.115 240.042 184.187 262.158 184.187C284.275 184.187 302.203 202.115 302.203 224.232ZM201.445 315.948C215.714 315.948 227.281 304.381 227.281 290.112C227.281 275.844 215.714 264.277 201.445 264.277C187.177 264.277 175.61 275.844 175.61 290.112C175.61 304.381 187.177 315.948 201.445 315.948ZM82.0915 216.44C135.978 180.014 192.719 172.189 198.799 179.414C202.875 184.258 189.4 195.547 176.365 206.469C169.958 211.837 163.656 217.116 159.598 221.497C155.024 226.435 150.388 232.341 145.879 238.084C138.248 247.803 130.983 257.055 125.012 260.358C119.847 251.797 95.8402 233.784 87.0271 228.509C78.2141 223.235 75.0237 219.503 82.0915 216.44ZM312.309 287.443C326.987 294.519 289.081 401.465 282.747 401.465C276.412 401.465 242.626 367.478 241.57 358.707C240.514 349.936 297.632 280.368 312.309 287.443Z" fill="#F2F5FB"/>
</svg>
