<svg width="133" height="50" viewBox="0 0 133 50" fill="none" xmlns="http://www.w3.org/2000/svg">
<path d="M54.5799 23.4754V22.0819C55.8932 22.1639 57.0019 22.2131 57.9912 22.2131C58.7585 22.2488 59.5264 22.1545 60.2597 21.9344C60.4852 21.8554 60.6871 21.7244 60.8477 21.5529C61.0082 21.3814 61.1226 21.1747 61.1807 20.9508C61.3623 20.2212 61.437 19.4708 61.4024 18.7213V18.295H61.3001C61.0552 18.7913 60.6218 19.1785 60.0891 19.3771C59.4021 19.6213 58.6718 19.7328 57.9399 19.705C57.1182 19.7493 56.2978 19.5972 55.5521 19.2623C55.2638 19.0962 55.0138 18.8753 54.8174 18.6131C54.6209 18.351 54.4821 18.0532 54.4094 17.7377C54.1482 16.7082 54.0334 15.6494 54.0682 14.5902C54.0336 13.5202 54.1484 12.4506 54.4094 11.4099C54.5722 10.7705 54.9884 10.2176 55.5692 9.8689C56.3088 9.53402 57.1237 9.38185 57.9399 9.42624C58.6714 9.40422 59.4006 9.51548 60.0891 9.75413C60.3808 9.8679 60.6459 10.0368 60.8686 10.2508C61.0912 10.4648 61.267 10.7196 61.3853 11H61.5048V9.57383H62.9886V18.3279C63.03 19.4288 62.9269 20.5304 62.6816 21.6066C62.5927 21.9545 62.4282 22.2805 62.1989 22.563C61.9696 22.8455 61.6807 23.0783 61.3512 23.2459C60.3817 23.659 59.3221 23.8391 58.264 23.7705C57.0306 23.7492 55.8 23.6507 54.5799 23.4754ZM60.1403 17.9344C60.5102 17.7823 60.8123 17.5094 60.9931 17.1639C61.1381 16.8407 61.2301 16.4978 61.2659 16.1475C61.3003 15.6016 61.3003 15.0541 61.2659 14.5082C61.2659 13.836 61.2659 13.3114 61.2659 12.8688C61.2438 12.534 61.1571 12.206 61.0102 11.9017C60.9285 11.7121 60.8078 11.5403 60.6554 11.3967C60.503 11.253 60.322 11.1404 60.1232 11.0656C59.5814 10.8595 58.9992 10.7701 58.4176 10.8033C57.7815 10.7684 57.1445 10.8518 56.5414 11.0492C56.3457 11.1441 56.175 11.2805 56.042 11.448C55.9091 11.6155 55.8174 11.8099 55.7739 12.0164C55.5237 13.6085 55.5237 15.2276 55.7739 16.8197C55.8174 17.0262 55.9091 17.2205 56.042 17.388C56.175 17.5556 56.3457 17.6919 56.5414 17.7869C57.1445 17.9842 57.7815 18.0677 58.4176 18.0328C58.9928 18.1114 59.5787 18.0779 60.1403 17.9344Z" fill="#0062FF"/>
<path d="M74.911 15.164H67.7644C67.7344 15.8528 67.8033 16.5424 67.9691 17.2132C68.0339 17.4137 68.1486 17.5962 68.3031 17.7447C68.4576 17.8932 68.6474 18.0033 68.8561 18.0657C69.6051 18.2646 70.3824 18.3476 71.1586 18.3115C72.2994 18.3131 73.439 18.2419 74.5699 18.0984V19.4919C74.0057 19.5885 73.4362 19.6542 72.8643 19.6886C72.1649 19.6886 71.4998 19.6886 70.8858 19.6886C69.8275 19.7455 68.7689 19.5834 67.7815 19.2131C67.4632 19.069 67.1819 18.8592 66.9578 18.5985C66.7337 18.3377 66.5723 18.0326 66.4852 17.7049C66.2435 16.6616 66.1404 15.5929 66.1782 14.5246C66.1425 13.4797 66.2342 12.4344 66.4512 11.4099C66.5188 11.0649 66.6656 10.7387 66.881 10.4551C67.0964 10.1715 67.3749 9.93763 67.6962 9.77057C68.6689 9.36863 69.727 9.19445 70.7834 9.26238C71.755 9.19861 72.7278 9.36757 73.6147 9.75416C73.906 9.91482 74.1575 10.1343 74.3519 10.3975C74.5463 10.6608 74.6789 10.9614 74.7405 11.2787C74.9281 12.3178 75.0081 13.3721 74.9793 14.4263L74.911 15.164ZM68.7537 11.164C68.5633 11.2382 68.3935 11.3538 68.2574 11.5017C68.1212 11.6496 68.0225 11.8258 67.9691 12.0165C67.822 12.6735 67.7533 13.3444 67.7644 14.0164H73.3077V13.8525C73.337 13.2104 73.2564 12.5679 73.069 11.9508C73.0128 11.7678 72.9147 11.5993 72.7819 11.4574C72.6491 11.3156 72.4849 11.2041 72.3015 11.1312C71.7494 10.9695 71.172 10.9029 70.5958 10.9344C69.9728 10.9124 69.3503 10.9899 68.7537 11.164Z" fill="#0062FF"/>
<path d="M85.0766 13.9672C85.1021 13.2956 85.0391 12.6235 84.889 11.9671C84.8459 11.79 84.7601 11.6252 84.6387 11.4857C84.5172 11.3462 84.3634 11.2359 84.1897 11.1639C83.6371 11.0045 83.0601 10.938 82.484 10.9672C81.8267 10.9197 81.1691 11.0564 80.5908 11.3606C80.3924 11.4806 80.2218 11.6386 80.0898 11.8248C79.9577 12.0109 79.867 12.2213 79.8233 12.4426C79.7042 13.1029 79.6528 13.7727 79.6698 14.4426V19.6065H77.9642V9.52453H79.431L79.5163 10.9508H79.6357C79.8597 10.4346 80.2722 10.015 80.7955 9.77047C81.5211 9.47024 82.3092 9.33549 83.098 9.37695C83.8834 9.33051 84.6685 9.4713 85.3836 9.78678C85.882 10.0528 86.2546 10.4931 86.424 11.0163C86.6183 11.7553 86.7045 12.5167 86.6799 13.2786V19.5573H84.9743L85.0766 13.9672Z" fill="#0062FF"/>
<path d="M96.8966 18.1147V19.5082C96.5213 19.5082 96.0779 19.6393 95.5492 19.6885C95.0204 19.7377 94.5258 19.6885 94.0482 19.6885H93.7412L92.9566 23.2623H91.2509V23.1639L92.496 19.5902C91.8169 19.5242 91.1803 19.2414 90.6881 18.7869C90.2592 18.3334 89.9957 17.7579 89.9376 17.1476C89.7965 16.247 89.7338 15.3367 89.75 14.4262C89.7177 13.396 89.8208 12.366 90.057 11.3606C90.1331 11.0229 90.2797 10.7035 90.4879 10.4218C90.696 10.14 90.9614 9.90172 91.268 9.72127C92.0936 9.33163 93.0109 9.15643 93.9288 9.21308C94.3893 9.21308 94.8839 9.21308 95.4127 9.21308L96.7601 9.39339V11.1639C95.9619 11.0153 95.1511 10.9385 94.3381 10.9344C93.6866 10.8975 93.0345 10.9982 92.4278 11.2294C92.2219 11.3366 92.0432 11.4863 91.9046 11.6677C91.766 11.8491 91.6709 12.0577 91.6261 12.2786C91.462 13.0607 91.3933 13.8584 91.4215 14.6557C91.3937 15.4639 91.4624 16.2724 91.6261 17.0655C91.6762 17.2845 91.7754 17.4905 91.9168 17.6689C92.0582 17.8472 92.2385 17.9938 92.4449 18.0983C93.0727 18.3166 93.7397 18.4115 94.4063 18.3771C95.2418 18.3461 96.074 18.2584 96.8966 18.1147Z" fill="#0062FF"/>
<path d="M99.6939 19.6066V5H101.4V19.6066H99.6939Z" fill="#0062FF"/>
<path d="M113.237 15.1639H106.09C106.06 15.8528 106.129 16.5423 106.295 17.2131C106.363 17.4118 106.479 17.5922 106.633 17.7402C106.787 17.8882 106.975 17.9997 107.182 18.0656C107.936 18.2655 108.719 18.3484 109.501 18.3114C110.642 18.3132 111.782 18.242 112.913 18.0983V19.4918C112.348 19.5892 111.779 19.6549 111.207 19.6885C110.508 19.6885 109.842 19.6885 109.211 19.6885C108.153 19.744 107.095 19.5818 106.107 19.2131C105.791 19.0662 105.511 18.8555 105.287 18.5952C105.064 18.3349 104.901 18.0312 104.811 17.7049C104.569 16.6615 104.466 15.5929 104.504 14.5246C104.477 13.4799 104.568 12.4355 104.777 11.4099C104.847 11.0637 104.997 10.737 105.216 10.4534C105.434 10.1699 105.715 9.93664 106.039 9.77052C107.005 9.36811 108.058 9.19386 109.109 9.26233C110.086 9.19856 111.064 9.36746 111.957 9.75411C112.244 9.9182 112.491 10.1389 112.682 10.4018C112.873 10.6646 113.004 10.9636 113.066 11.2787C113.254 12.3177 113.334 13.372 113.305 14.4262L113.237 15.1639ZM107.13 11.1639C106.94 11.2381 106.77 11.3537 106.634 11.5016C106.498 11.6495 106.399 11.8257 106.346 12.0164C106.182 12.6711 106.108 13.3433 106.124 14.0164H111.684V13.8525C111.714 13.2103 111.633 12.5678 111.446 11.9508C111.39 11.7678 111.291 11.5992 111.159 11.4574C111.026 11.3156 110.862 11.204 110.678 11.1311C110.126 10.9694 109.549 10.9028 108.973 10.9344C108.349 10.9111 107.727 10.9887 107.13 11.1639Z" fill="#0062FF"/>
<path d="M116.358 9.52467H117.825L117.91 11.4427H118.029C118.105 11.1025 118.253 10.7811 118.464 10.4989C118.676 10.2167 118.946 9.97983 119.257 9.80333C119.959 9.48249 120.732 9.33065 121.509 9.36077V11.0001C120.762 10.9569 120.017 11.098 119.343 11.41C118.834 11.6876 118.46 12.1471 118.302 12.6886C118.077 13.4391 117.979 14.2197 118.012 15.0001V19.4755H116.307L116.358 9.52467Z" fill="#0062FF"/>
<path d="M132.118 15.164H124.971C124.941 15.8528 125.01 16.5424 125.176 17.2132C125.241 17.4137 125.355 17.5962 125.51 17.7447C125.665 17.8932 125.854 18.0033 126.063 18.0657C126.812 18.2646 127.589 18.3476 128.366 18.3115C129.506 18.3131 130.646 18.2419 131.777 18.0984V19.4919C131.213 19.5885 130.643 19.6542 130.071 19.6886C129.372 19.6886 128.707 19.6886 128.093 19.6886C127.034 19.7455 125.976 19.5834 124.988 19.2131C124.67 19.069 124.389 18.8592 124.165 18.5985C123.941 18.3377 123.779 18.0326 123.692 17.7049C123.45 16.6616 123.347 15.5929 123.385 14.5246C123.349 13.4797 123.441 12.4344 123.658 11.4099C123.726 11.0649 123.872 10.7387 124.088 10.4551C124.303 10.1715 124.582 9.93763 124.903 9.77057C125.876 9.36863 126.934 9.19445 127.99 9.26238C128.962 9.19861 129.935 9.36757 130.822 9.75416C131.113 9.91482 131.364 10.1343 131.559 10.3975C131.753 10.6608 131.886 10.9614 131.947 11.2787C132.135 12.3178 132.215 13.3721 132.186 14.4263L132.118 15.164ZM125.892 11.164C125.702 11.2382 125.532 11.3538 125.396 11.5017C125.26 11.6496 125.161 11.8258 125.108 12.0165C124.961 12.6735 124.892 13.3444 124.903 14.0164H130.446V13.8525C130.476 13.2104 130.395 12.5679 130.208 11.9508C130.151 11.7678 130.053 11.5993 129.921 11.4574C129.788 11.3156 129.624 11.2041 129.44 11.1312C128.888 10.9695 128.311 10.9029 127.734 10.9344C127.111 10.9124 126.489 10.9899 125.892 11.164Z" fill="#0062FF"/>
<path d="M55.4751 39.7026C55.1913 39.5294 54.9458 39.3042 54.7526 39.0398C54.5595 38.7754 54.4224 38.477 54.3493 38.1616C54.0819 37.1554 53.9669 36.1174 54.0082 35.0796C53.9684 34.0365 54.0832 32.9934 54.3493 31.9814C54.4819 31.3167 54.8798 30.7283 55.458 30.342C56.1194 29.9913 56.87 29.8265 57.6241 29.8665C58.2968 29.8487 58.9673 29.9486 59.6027 30.1616C60.1244 30.3429 60.5565 30.7055 60.8136 31.178H60.933V25.5059H62.9969V39.9321H61.1207V38.6535H61.0013C60.7506 39.1746 60.2975 39.5805 59.7392 39.7845C59.1024 39.9921 58.4329 40.092 57.7606 40.0797C56.977 40.162 56.1852 40.0313 55.4751 39.7026ZM59.9268 38.0633C60.2507 37.9335 60.5081 37.6861 60.6431 37.3748C60.7747 37.0949 60.8555 36.7956 60.8819 36.4895C60.8819 36.1453 60.8819 35.6698 60.8819 35.096C60.8819 34.5223 60.8819 34.0633 60.8819 33.7355C60.86 33.4428 60.7909 33.1552 60.6773 32.883C60.5295 32.5744 60.2683 32.3292 59.9438 32.1945C59.5016 32.0175 59.0235 31.939 58.5452 31.9649C58.0083 31.9346 57.4703 32.0013 56.959 32.1617C56.7931 32.2439 56.6496 32.3624 56.54 32.5076C56.4304 32.6528 56.3578 32.8207 56.3279 32.9977C56.1952 33.6951 56.138 34.4038 56.1573 35.1125C56.1362 35.8212 56.1935 36.53 56.3279 37.2272C56.3565 37.4047 56.4286 37.5732 56.5383 37.7186C56.648 37.8639 56.7923 37.9821 56.959 38.0633C57.473 38.2375 58.0184 38.31 58.5623 38.2764C59.0314 38.2834 59.4966 38.194 59.9268 38.0141V38.0633Z" fill="#0062FF"/>
<path d="M74.7658 35.801H68.1138C68.0881 36.3525 68.1455 36.9046 68.2843 37.4403C68.3489 37.6095 68.4559 37.7608 68.5957 37.8809C68.7355 38.0009 68.9039 38.0861 69.086 38.1289C69.7896 38.2891 70.5128 38.3553 71.2352 38.3256C72.3012 38.3153 73.366 38.2496 74.4247 38.1289V39.7682C73.9812 39.8502 73.4184 39.9158 72.7191 39.9814C72.0197 40.0469 71.3716 39.9814 70.7235 39.9814C69.6425 40.0484 68.5594 39.8861 67.5509 39.5059C67.2287 39.3647 66.9436 39.156 66.7163 38.895C66.4891 38.6341 66.3255 38.3274 66.2377 37.9977C65.8282 35.973 65.8282 33.8914 66.2377 31.8666C66.3228 31.5215 66.4821 31.1974 66.7053 30.915C66.9286 30.6327 67.2107 30.3984 67.5339 30.2273C68.488 29.8226 69.5289 29.6427 70.5699 29.7027C71.5617 29.6372 72.5543 29.8178 73.4525 30.2273C73.7389 30.3936 73.9866 30.6147 74.1802 30.877C74.3739 31.1393 74.5093 31.4371 74.5781 31.7518C74.7727 32.7679 74.8528 33.8012 74.8169 34.8338L74.7658 35.801ZM68.8814 32.0469C68.7239 32.1109 68.5828 32.2071 68.4679 32.3289C68.353 32.4506 68.2671 32.5949 68.2162 32.7518C68.094 33.2902 68.0369 33.8402 68.0456 34.3912H72.7361C72.7645 33.8375 72.6953 33.2833 72.5315 32.7518C72.4795 32.5954 72.3931 32.4516 72.2784 32.33C72.1636 32.2084 72.0231 32.1118 71.8662 32.0469C71.4133 31.9153 70.9402 31.8599 70.4676 31.883C69.9329 31.845 69.3955 31.9005 68.8814 32.0469Z" fill="#0062FF"/>
<path d="M79.2005 40.096L77.3072 39.8993V38.1452C78.4966 38.2733 79.6922 38.339 80.889 38.342C81.3584 38.3593 81.8281 38.3207 82.2876 38.2272C82.402 38.2131 82.5117 38.175 82.609 38.1155C82.7063 38.056 82.7888 37.9765 82.8505 37.8829C82.96 37.6637 83.007 37.4204 82.9869 37.178C82.9975 36.9456 82.9687 36.7131 82.9016 36.4895C82.8408 36.3618 82.7307 36.2618 82.5946 36.2108C82.3383 36.139 82.0757 36.0896 81.8101 36.0633L79.3199 35.7846C78.8 35.7454 78.2973 35.5881 77.853 35.3255C77.5276 35.0992 77.2879 34.7768 77.1707 34.4075C77.0358 33.9156 76.9727 33.408 76.9832 32.8993C76.9424 32.2318 77.115 31.5682 77.4777 30.9977C77.8134 30.5706 78.2977 30.2738 78.8422 30.1616C79.5802 29.9988 80.3368 29.9272 81.0937 29.9484C81.6636 29.9541 82.2328 29.987 82.7993 30.0469C83.3319 30.088 83.8616 30.1591 84.3855 30.2599V32.0469C83.3178 31.9002 82.2405 31.829 81.162 31.8337C80.7248 31.8017 80.2857 31.8017 79.8486 31.8337C79.5967 31.8626 79.3623 31.9723 79.1834 32.1452C79.0248 32.3599 78.9466 32.62 78.9616 32.8829C78.9527 33.0991 78.9815 33.3153 79.0469 33.5223C79.0717 33.586 79.1105 33.6437 79.1605 33.6918C79.2105 33.7399 79.2707 33.7771 79.3369 33.801C79.5695 33.8716 79.8099 33.9156 80.0533 33.9321L82.7822 34.2599C83.2272 34.2974 83.661 34.4142 84.0615 34.6042C84.3761 34.7868 84.6121 35.0718 84.7267 35.4075C84.8922 35.9669 84.967 36.5475 84.9484 37.1288C84.9881 37.7953 84.8346 38.4593 84.5049 39.0469C84.2239 39.485 83.7779 39.802 83.2599 39.9321C82.5506 40.0936 81.8223 40.1653 81.0937 40.1452C80.582 40.2436 79.9168 40.1452 79.2005 40.096Z" fill="#0062FF"/>
<path d="M88.4791 40.0141V31.9322H86.4152V30.1125H88.4791V27.2437H90.6282V30.1125H93.0331V31.9322H90.6282V40.0141H88.4791Z" fill="#0062FF"/>
<path d="M103.506 35.801H96.7855C96.7598 36.3525 96.8172 36.9046 96.956 37.4403C97.0232 37.608 97.1309 37.758 97.2703 37.8778C97.4097 37.9975 97.5768 38.0836 97.7577 38.1289C98.467 38.2898 99.1959 38.356 99.9239 38.3256C100.99 38.3148 102.055 38.2492 103.113 38.1289V39.7683C102.67 39.8502 102.107 39.9158 101.408 39.9814C100.709 40.047 100.06 39.9814 99.4121 39.9814C98.3313 40.0453 97.249 39.883 96.2397 39.5059C95.9195 39.3619 95.636 39.1522 95.4092 38.8917C95.1823 38.6311 95.0175 38.326 94.9263 37.9977C94.5168 35.973 94.5168 33.8914 94.9263 31.8666C95.0114 31.5215 95.1707 31.1974 95.394 30.9151C95.6172 30.6327 95.8995 30.3984 96.2226 30.2273C97.1829 29.823 98.2293 29.6432 99.2758 29.7027C100.307 29.6804 101.326 29.9238 102.226 30.4076C102.517 30.5706 102.769 30.7906 102.966 31.0532C103.163 31.3159 103.3 31.6153 103.369 31.9321C103.548 32.9501 103.622 33.9823 103.591 35.0141L103.506 35.801ZM97.6213 32.0469C97.4643 32.1089 97.3243 32.2047 97.2119 32.3269C97.0996 32.4491 97.0178 32.5945 96.9731 32.7518C96.8347 33.2878 96.7716 33.8391 96.7855 34.3912H101.476C101.504 33.8375 101.435 33.2833 101.271 32.7518C101.219 32.5954 101.133 32.4516 101.018 32.33C100.904 32.2084 100.763 32.1118 100.606 32.0469C100.153 31.914 99.6801 31.8585 99.2075 31.883C98.6728 31.845 98.1353 31.9005 97.6213 32.0469Z" fill="#0062FF"/>
<path d="M112.801 40.0141L109.561 35.9486H108.469V40.0141H106.32V25.5879H108.469V34.1125H109.561L112.852 30.1125H115.206L111.266 34.8829L115.275 40.0141H112.801Z" fill="#0062FF"/>
<path d="M24.5 45C36.9264 45 47 34.9264 47 22.5C47 10.0736 36.9264 0 24.5 0C12.0736 0 2 10.0736 2 22.5C2 34.9264 12.0736 45 24.5 45Z" fill="#0062FF"/>
<path d="M12.0981 42.2019C8.94628 43.9908 5.03488 46.7806 3.47317 47.9519C-0.124117 49.7942 0.980477 47.6547 1.98243 46.3547C2.7278 45.8223 4.00557 42.5214 4.85742 40.7112C6.24167 37.0909 12.0981 30.5955 14.8666 34.0029C17.2396 36.9236 13.8018 40.7112 12.0981 42.2019Z" fill="#0062FF" stroke="#E0EBFB" stroke-width="2"/>
<path d="M17.3157 36.3455C16.5292 36.4835 12.1148 31.8322 11.7787 31.0215C11.4425 30.2108 13.7834 26.9041 14.8666 25.1367C14.4407 24.7889 10.075 22.8225 9.9685 21.3317C9.86201 19.841 18.061 17.0725 21.0708 17.2855C23.1454 15.2706 25.2361 13.7434 27.2184 12.6081C30.9807 10.4533 34.3525 9.71032 36.4822 9.72532C36.3847 13.0611 35.6524 16.1181 34.5066 18.8827C33.4997 21.3121 32.1735 23.5158 30.6781 25.4845C30.7317 28.4659 28.4961 37.8362 27.4313 37.4103C26.3666 36.9844 24.507 33.9536 22.9877 32.9667C20.8901 34.4988 18.1022 36.2075 17.3157 36.3455Z" fill="#E0EBFB"/>
<path d="M30.6781 25.4845C30.7317 28.4659 28.4961 37.8362 27.4313 37.4103C26.3666 36.9844 24.507 33.9536 22.9877 32.9667M30.6781 25.4845C28.3373 28.5661 25.5818 31.072 22.9877 32.9667M30.6781 25.4845C32.1735 23.5158 33.4997 21.3121 34.5066 18.8827M22.9877 32.9667C20.8901 34.4988 18.1022 36.2075 17.3157 36.3455C16.5292 36.4835 12.1148 31.8322 11.7787 31.0215C11.4425 30.2108 13.7834 26.9041 14.8666 25.1367M21.0708 17.2855C18.061 17.0725 9.86201 19.841 9.9685 21.3317C10.075 22.8225 14.4407 24.7889 14.8666 25.1367M21.0708 17.2855C18.9408 19.3541 16.8278 21.9367 14.8666 25.1367M21.0708 17.2855C23.1454 15.2706 25.2361 13.7434 27.2184 12.6081M27.2184 12.6081C30.9807 10.4533 34.3525 9.71032 36.4822 9.72532C36.3847 13.0611 35.6524 16.1181 34.5066 18.8827M27.2184 12.6081C29.3087 13.2799 33.6928 15.4753 34.5066 18.8827" stroke="#E0EBFB" stroke-width="2"/>
<circle cx="25.4082" cy="21.5447" r="3.3009" fill="#0062FF"/>
<circle cx="20.4036" cy="26.9752" r="2.12962" fill="#0062FF"/>
<path d="M27.3351 36C27.848 36 30.917 27.5956 29.7286 27.0396C28.5403 26.4836 23.9157 31.9506 24.0012 32.6399C24.0867 33.3291 26.8222 36 27.3351 36Z" fill="#0062FF"/>
<path d="M10.4026 20.643C14.8879 17.7056 19.574 17.129 20.0664 17.7318C20.5587 18.3346 17.8157 20.0723 16.7847 21.1532C15.7538 22.234 14.6767 23.8928 13.8873 24.3144C13.472 23.6026 11.515 22.0891 10.7949 21.6438C10.0749 21.1984 9.81642 20.887 10.4026 20.643Z" fill="#0062FF"/>
</svg>
