<svg width="24" height="24" viewBox="0 0 24 26" fill="none" xmlns="http://www.w3.org/2000/svg">
<path d="M11.7 18.2C13.8723 18.2 15.6 16.4697 15.6 14.3C15.6 12.1303 13.8723 10.4 11.7 10.4C9.52769 10.4 7.79999 12.1303 7.79999 14.3C7.79999 16.4697 9.52769 18.2 11.7 18.2Z" fill="#0061FF"/>
<path d="M23.1621 11.9418C22.8558 10.4447 22.2572 9.02262 21.4006 7.7571C20.5589 6.51206 19.4866 5.43975 18.2416 4.5981C16.9759 3.74182 15.5539 3.14326 14.0569 2.8366C13.2705 2.67713 12.4699 2.59872 11.6675 2.6026V0L6.5 3.9L11.6675 7.8V5.2026C12.2967 5.2 12.9259 5.2598 13.533 5.3846C14.6965 5.62303 15.8017 6.08817 16.7856 6.7535C17.7559 7.40771 18.591 8.24281 19.2452 9.2131C20.2609 10.7149 20.8026 12.487 20.8 14.3C20.7998 15.5166 20.5567 16.721 20.085 17.8425C19.8556 18.3827 19.5753 18.8998 19.2478 19.3869C18.919 19.871 18.5456 20.3232 18.1324 20.7376C16.874 21.9936 15.2764 22.8552 13.5356 23.2167C12.3249 23.4611 11.0777 23.4611 9.867 23.2167C8.70292 22.978 7.59725 22.5124 6.6131 21.8465C5.64393 21.1929 4.80973 20.3587 4.1561 19.3895C3.14152 17.8861 2.59962 16.1137 2.6 14.3H0C0.00138342 16.6318 0.697952 18.9102 2.0007 20.8442C2.8429 22.0872 3.91412 23.1584 5.1571 24.0006C7.08841 25.3077 9.36794 26.0043 11.7 26C12.4921 25.9999 13.2821 25.9202 14.0582 25.7621C15.5541 25.4532 16.9753 24.8548 18.2416 24.0006C18.8634 23.5816 19.4429 23.1032 19.9719 22.5719C20.5017 22.0407 20.9804 21.4609 21.4019 20.8403C22.7079 18.9095 23.404 16.631 23.4 14.3C23.3999 13.5079 23.3202 12.7179 23.1621 11.9418Z" fill="#0061FF"/>
</svg>
